<svg width="20" height="20" viewBox="0 0 20 20" fill="none" xmlns="http://www.w3.org/2000/svg">
<g id="account_circle">
<mask id="mask0_2650_18654" style="mask-type:alpha" maskUnits="userSpaceOnUse" x="0" y="0" width="20" height="20">
<rect id="Bounding box" width="20" height="20" fill="#D9D9D9"/>
</mask>
<g mask="url(#mask0_2650_18654)">
<path id="account_circle_2" d="M4.8763 14.2493C5.58464 13.7077 6.3763 13.2806 7.2513 12.9681C8.1263 12.6556 9.04297 12.4993 10.0013 12.4993C10.9596 12.4993 11.8763 12.6556 12.7513 12.9681C13.6263 13.2806 14.418 13.7077 15.1263 14.2493C15.6124 13.6799 15.9909 13.0341 16.2617 12.3118C16.5326 11.5896 16.668 10.8188 16.668 9.99935C16.668 8.15213 16.0187 6.57921 14.7201 5.2806C13.4214 3.98199 11.8485 3.33268 10.0013 3.33268C8.15408 3.33268 6.58116 3.98199 5.28255 5.2806C3.98394 6.57921 3.33464 8.15213 3.33464 9.99935C3.33464 10.8188 3.47005 11.5896 3.74089 12.3118C4.01172 13.0341 4.39019 13.6799 4.8763 14.2493ZM10.0013 10.8327C9.18186 10.8327 8.49089 10.5514 7.92839 9.98893C7.36589 9.42643 7.08464 8.73546 7.08464 7.91602C7.08464 7.09657 7.36589 6.4056 7.92839 5.8431C8.49089 5.2806 9.18186 4.99935 10.0013 4.99935C10.8207 4.99935 11.5117 5.2806 12.0742 5.8431C12.6367 6.4056 12.918 7.09657 12.918 7.91602C12.918 8.73546 12.6367 9.42643 12.0742 9.98893C11.5117 10.5514 10.8207 10.8327 10.0013 10.8327ZM10.0013 18.3327C8.84852 18.3327 7.76519 18.1139 6.7513 17.6764C5.73741 17.2389 4.85547 16.6452 4.10547 15.8952C3.35547 15.1452 2.76172 14.2632 2.32422 13.2493C1.88672 12.2355 1.66797 11.1521 1.66797 9.99935C1.66797 8.84657 1.88672 7.76324 2.32422 6.74935C2.76172 5.73546 3.35547 4.85352 4.10547 4.10352C4.85547 3.35352 5.73741 2.75977 6.7513 2.32227C7.76519 1.88477 8.84852 1.66602 10.0013 1.66602C11.1541 1.66602 12.2374 1.88477 13.2513 2.32227C14.2652 2.75977 15.1471 3.35352 15.8971 4.10352C16.6471 4.85352 17.2409 5.73546 17.6784 6.74935C18.1159 7.76324 18.3346 8.84657 18.3346 9.99935C18.3346 11.1521 18.1159 12.2355 17.6784 13.2493C17.2409 14.2632 16.6471 15.1452 15.8971 15.8952C15.1471 16.6452 14.2652 17.2389 13.2513 17.6764C12.2374 18.1139 11.1541 18.3327 10.0013 18.3327Z" fill="#8135F9"/>
</g>
</g>
</svg>
